<svg version="1.1" id="Layer_1" xmlns="http://www.w3.org/2000/svg" xmlns:xlink="http://www.w3.org/1999/xlink" x="0px" y="0px"
	 width="100%" viewBox="0 0 500 250" enable-background="new 0 0 500 250" xml:space="preserve">
<path fill="#D8D9D9" opacity="1.000000" stroke="none" 
	d="
M379.000000,251.000000 
	C252.708603,251.000000 126.917213,251.000000 1.062912,251.000000 
	C1.062912,167.736420 1.062912,84.472786 1.062912,1.104576 
	C167.666641,1.104576 334.333313,1.104576 500.979645,1.104576 
	C500.979645,84.416023 500.979645,167.708008 500.979645,251.000000 
	C460.472870,251.000000 419.986420,251.000000 379.000000,251.000000 
M271.500305,158.020798 
	C281.994995,158.020752 292.494965,157.828583 302.981842,158.114517 
	C307.223419,158.230179 308.951813,156.774719 308.231476,152.719513 
	C307.361938,147.824249 309.458221,145.698196 314.217316,145.412125 
	C316.952484,145.247726 318.334015,144.007294 317.640869,140.790833 
	C313.716583,122.581032 309.886017,104.349976 306.213348,86.087967 
	C305.577820,82.927849 304.136078,82.346962 301.362457,82.972771 
	C297.307159,83.887779 293.182159,84.508125 289.149475,85.506889 
	C262.528107,92.100143 235.627441,95.900620 208.107803,94.181084 
	C202.797882,93.849297 197.449478,94.133110 192.118835,94.133484 
	C184.139404,94.134056 184.138290,94.134254 184.137878,101.868950 
	C184.137054,117.194550 184.137604,132.520142 184.137619,147.845749 
	C184.137619,157.312637 184.137726,157.311813 193.568069,158.233856 
	C193.715591,158.248260 193.852142,158.375122 194.310486,158.615799 
	C194.754562,160.464050 195.525497,162.521378 195.695862,164.627289 
	C196.025543,168.702637 197.951035,169.670883 201.700409,168.615875 
	C205.055115,167.671906 208.504440,167.022278 211.944199,166.429535 
	C231.383728,163.079697 250.344925,156.380081 271.500305,158.020798 
M154.767410,32.726120 
	C154.767410,45.171719 154.767410,57.617321 154.767410,69.821655 
	C155.575623,70.202049 155.863724,70.455200 156.153351,70.456924 
	C165.474014,70.512634 174.794800,70.563469 184.115616,70.574570 
	C197.913345,70.591003 200.163055,68.298386 199.571381,54.557415 
	C199.496841,52.826393 198.600250,51.141041 198.189743,49.409580 
	C198.003250,48.622940 197.990387,47.770157 198.041260,46.956287 
	C198.354416,41.946278 199.450287,36.827427 198.722595,31.979422 
	C198.379883,29.696316 194.635040,26.316311 192.302979,26.208006 
	C179.915878,25.632721 167.487900,25.937494 154.767838,25.937494 
	C154.767838,28.178200 154.767838,29.989004 154.767410,32.726120 
M234.916626,212.567154 
	C234.004105,211.505020 233.091599,210.442871 231.806320,208.946838 
	C233.456787,208.823715 234.415009,208.707001 235.375183,208.687546 
	C246.686447,208.458359 248.900635,206.164124 248.889542,194.651718 
	C248.888412,193.487427 248.940079,192.319504 248.867889,191.159454 
	C248.504593,185.320145 245.228653,181.970978 239.372040,181.796661 
	C233.721664,181.628494 228.062897,181.737183 222.407822,181.732269 
	C216.341187,181.727005 210.274536,181.731094 204.306091,181.731094 
	C204.306091,197.033905 204.306091,211.587097 204.306091,226.157349 
	C207.348221,226.157349 210.053116,226.157349 213.170486,226.157349 
	C213.170486,220.160324 213.170486,214.569824 213.170486,207.456848 
	C216.433792,209.114700 219.042801,209.920685 220.973679,211.536865 
	C224.276550,214.301407 227.592239,217.252823 230.117844,220.700592 
	C234.983398,227.342682 241.435242,227.182037 248.541748,226.189453 
	C248.541748,223.305695 248.541748,220.610474 248.541748,217.317444 
	C243.291031,218.048141 238.512512,217.845993 234.916626,212.567154 
M302.981720,187.853851 
	C302.981720,200.583755 302.981720,213.313660 302.981720,226.175278 
	C305.738098,226.175278 308.430389,226.175278 311.714905,226.175278 
	C311.714905,220.221878 311.714905,214.668976 311.714905,209.111557 
	C320.845978,209.111557 329.370087,209.111557 338.428040,209.111557 
	C338.428040,215.078186 338.428040,220.634293 338.428040,226.325150 
	C341.565460,226.325150 344.155273,226.325150 347.260620,226.325150 
	C347.260620,214.638870 347.340668,203.205063 347.230408,191.773102 
	C347.164917,184.981064 343.908173,181.834183 336.996399,181.749466 
	C328.849976,181.649582 320.700958,181.777252 312.553894,181.708557 
	C308.328735,181.672928 305.144318,183.233536 302.981720,187.853851 
M203.984909,45.510082 
	C203.984909,53.748447 203.984909,61.986809 203.984909,70.295212 
	C207.316574,70.295212 209.912888,70.295212 213.134827,70.295212 
	C213.134827,64.327698 213.134827,58.615322 213.134827,53.060375 
	C222.336945,53.060375 230.905640,53.060375 239.989914,53.060375 
	C239.989914,58.992470 239.989914,64.562584 239.989914,70.138443 
	C243.240479,70.138443 245.942215,70.138443 248.891510,70.138443 
	C248.891510,59.066040 248.892181,48.424755 248.890396,37.783470 
	C248.890244,36.785137 248.937912,35.781578 248.855835,34.789341 
	C248.411499,29.417747 245.263123,25.969778 239.994415,25.852066 
	C230.847580,25.647717 221.688690,25.643795 212.542770,25.872421 
	C207.519730,25.997986 204.302490,29.487541 204.036209,34.533291 
	C203.861023,37.852493 203.991364,41.187828 203.984909,45.510082 
M166.021927,181.723953 
	C157.446274,182.034729 154.811020,184.718292 154.775040,193.291092 
	C154.742935,200.943802 154.700714,208.597641 154.795822,216.249344 
	C154.881134,223.112564 158.012772,226.390076 164.849350,226.529068 
	C172.997940,226.694687 181.154449,226.683578 189.303711,226.537003 
	C196.098846,226.414810 199.453293,223.110611 199.587082,216.366318 
	C199.748703,208.217606 199.745392,200.060898 199.587814,191.912018 
	C199.454865,185.036331 196.211227,181.862564 189.379807,181.757980 
	C181.895035,181.643417 174.407242,181.725922 166.021927,181.723953 
M326.457703,49.655285 
	C326.660889,48.431061 326.416962,46.708889 327.138031,46.061356 
	C332.933777,40.856758 336.729584,32.213718 346.902649,34.821018 
	C346.902649,31.403744 346.902649,28.681217 346.902649,25.996368 
	C335.203857,25.124216 335.202850,25.123199 328.424042,31.896702 
	C325.243958,35.074295 322.255981,38.482479 318.811401,41.340786 
	C317.112427,42.750603 314.574005,43.148762 311.331818,44.434357 
	C311.331818,37.122238 311.331818,31.561962 311.331818,26.000671 
	C308.128448,26.000671 305.527130,26.000671 302.688904,26.000671 
	C302.688904,40.836502 302.688904,55.395996 302.688904,70.198822 
	C305.665283,70.198822 308.362274,70.198822 311.638062,70.198822 
	C311.638062,64.257454 311.638062,58.682835 311.638062,51.508667 
	C314.907196,53.078312 317.417084,53.735069 319.192413,55.251648 
	C322.726776,58.270924 326.288757,61.439213 329.059448,65.131195 
	C333.921265,71.609634 340.238281,70.989380 346.855804,70.231339 
	C346.855804,67.139313 346.855804,64.427132 346.855804,61.176559 
	C339.706848,63.225960 335.480560,59.411983 331.571869,54.787037 
	C330.179474,53.139450 328.537048,51.703117 326.457703,49.655285 
M141.714691,208.587433 
	C148.144608,206.880295 150.015579,204.568283 150.115753,198.143082 
	C150.149506,195.977509 150.162872,193.809830 150.109482,191.644989 
	C149.948502,185.117416 146.802795,181.860275 140.212677,181.763046 
	C131.549988,181.635223 122.884125,181.723297 114.219627,181.719360 
	C111.311684,181.718033 108.403748,181.719147 105.667160,181.719147 
	C105.667160,197.132812 105.667160,211.688614 105.667160,226.265350 
	C108.684937,226.265350 111.272644,226.265350 114.416534,226.265350 
	C114.416534,220.389404 114.416534,214.813248 114.416534,208.661819 
	C123.598831,208.661819 132.223862,208.661819 141.714691,208.587433 
M253.150818,31.050882 
	C253.150818,44.006927 253.150818,56.962971 253.150818,70.226814 
	C256.329803,70.226814 259.057190,70.226814 262.337524,70.226814 
	C262.337524,60.706978 262.337524,51.504112 262.337524,41.383476 
	C264.286560,43.211586 265.501709,44.292423 266.651215,45.439083 
	C274.317841,53.086842 281.894562,60.827766 289.706726,68.323456 
	C290.925720,69.493057 293.269806,70.151520 294.955719,69.941147 
	C296.084656,69.800255 297.815277,67.719063 297.834351,66.483833 
	C298.041870,53.045086 297.964142,39.601929 297.964142,26.178028 
	C294.717926,26.178028 292.012878,26.178028 288.873444,26.178028 
	C288.873444,35.625671 288.873444,44.683666 288.873444,54.648102 
	C287.003571,52.928246 285.795227,51.891293 284.670593,50.770401 
	C277.118591,43.243683 269.634094,35.648453 262.023956,28.181189 
	C258.072144,24.303600 255.430069,24.980822 253.150818,31.050882 
M353.496582,222.851212 
	C355.446838,224.008026 357.373047,226.116318 359.351257,226.166245 
	C371.598083,226.475357 383.856598,226.321655 396.232605,226.321655 
	C396.232605,223.243057 396.232605,220.546127 396.232605,217.261154 
	C384.291138,217.261154 372.745178,217.261154 360.864075,217.261154 
	C360.864075,205.228302 360.864075,193.786606 360.864075,182.123123 
	C357.649017,182.123123 354.797638,182.123123 351.799164,182.123123 
	C351.799164,194.169952 351.750916,205.811325 351.855560,217.451340 
	C351.869812,219.040085 352.646790,220.621994 353.496582,222.851212 
M254.119171,190.555847 
	C259.689789,190.555847 265.260406,190.555847 271.155365,190.555847 
	C271.155365,203.042191 271.155365,214.490845 271.155365,226.251373 
	C274.233612,226.251373 276.964233,226.251373 280.199280,226.251373 
	C280.199280,214.364487 280.199280,202.777573 280.199280,190.740601 
	C286.293732,190.740601 291.894318,190.740601 297.756836,190.740601 
	C297.756836,187.546463 297.756836,184.817322 297.756836,182.146820 
	C282.803467,182.146820 268.094391,182.146820 253.052277,182.146820 
	C253.194336,185.043259 253.315628,187.516373 254.119171,190.555847 
z"/>
<path fill="#0A50AF" opacity="1.000000" stroke="none" 
	d="
M271.000458,158.020798 
	C250.344925,156.380081 231.383728,163.079697 211.944199,166.429535 
	C208.504440,167.022278 205.055115,167.671906 201.700409,168.615875 
	C197.951035,169.670883 196.025543,168.702637 195.695862,164.627289 
	C195.525497,162.521378 194.754562,160.464050 194.310486,158.615799 
	C193.852142,158.375122 193.715591,158.248260 193.568069,158.233856 
	C184.137726,157.311813 184.137619,157.312637 184.137619,147.845749 
	C184.137604,132.520142 184.137054,117.194550 184.137878,101.868950 
	C184.138290,94.134254 184.139404,94.134056 192.118835,94.133484 
	C197.449478,94.133110 202.797882,93.849297 208.107803,94.181084 
	C235.627441,95.900620 262.528107,92.100143 289.149475,85.506889 
	C293.182159,84.508125 297.307159,83.887779 301.362457,82.972771 
	C304.136078,82.346962 305.577820,82.927849 306.213348,86.087967 
	C309.886017,104.349976 313.716583,122.581032 317.640869,140.790833 
	C318.334015,144.007294 316.952484,145.247726 314.217316,145.412125 
	C309.458221,145.698196 307.361938,147.824249 308.231476,152.719513 
	C308.951813,156.774719 307.223419,158.230179 302.981842,158.114517 
	C292.494965,157.828583 281.994995,158.020752 271.000458,158.020798 
M207.500580,98.182800 
	C201.220337,98.182800 194.940094,98.182800 188.507538,98.182800 
	C188.507538,117.084824 188.507538,135.429138 188.507538,153.747925 
	C227.146118,153.747925 265.391022,153.747925 303.754974,153.747925 
	C303.754974,135.174973 303.754974,116.843239 303.754974,98.182877 
	C271.724274,98.182877 240.112274,98.182877 207.500580,98.182800 
M275.804596,92.178253 
	C274.228973,92.588783 272.653381,92.999306 271.077759,93.409828 
	C271.132935,93.575668 271.188110,93.741501 271.243286,93.907341 
	C281.852600,93.907341 292.461884,93.907341 303.544464,93.907341 
	C303.022339,91.406395 302.573029,89.254211 302.089142,86.936546 
	C293.201935,88.720840 284.907684,90.386086 275.804596,92.178253 
M206.204727,163.587814 
	C213.557571,162.022461 220.910416,160.457123 228.263260,158.891769 
	C228.217972,158.675400 228.172684,158.459015 228.127396,158.242645 
	C218.449249,158.242645 208.771088,158.242645 198.632812,158.242645 
	C199.153351,160.577835 199.601608,162.588730 200.064056,164.663284 
	C202.176666,164.316559 203.795303,164.050903 206.204727,163.587814 
M309.228546,120.844467 
	C309.014069,120.314117 308.799561,119.783768 308.401215,118.798775 
	C308.401215,126.944244 308.401215,134.493011 308.401215,142.526047 
	C310.247314,142.110046 311.728882,141.776184 313.585266,141.357864 
	C312.148773,134.389954 310.820953,127.949272 309.228546,120.844467 
z"/>
<path fill="#084FAF" opacity="1.000000" stroke="none" 
	d="
M154.767624,32.262962 
	C154.767838,29.989004 154.767838,28.178200 154.767838,25.937494 
	C167.487900,25.937494 179.915878,25.632721 192.302979,26.208006 
	C194.635040,26.316311 198.379883,29.696316 198.722595,31.979422 
	C199.450287,36.827427 198.354416,41.946278 198.041260,46.956287 
	C197.990387,47.770157 198.003250,48.622940 198.189743,49.409580 
	C198.600250,51.141041 199.496841,52.826393 199.571381,54.557415 
	C200.163055,68.298386 197.913345,70.591003 184.115616,70.574570 
	C174.794800,70.563469 165.474014,70.512634 156.153351,70.456924 
	C155.863724,70.455200 155.575623,70.202049 154.767410,69.821655 
	C154.767410,57.617321 154.767410,45.171719 154.767624,32.262962 
M166.614380,52.654385 
	C160.766342,54.006908 165.149307,58.258305 163.717773,61.207802 
	C172.927521,61.207802 181.604263,61.207802 190.309692,61.207802 
	C190.309692,58.206638 190.309692,55.638420 190.309692,52.644920 
	C182.500122,52.644920 175.048141,52.644920 166.614380,52.654385 
M189.067154,34.818291 
	C180.804108,34.818291 172.541061,34.818291 164.040344,34.818291 
	C164.040344,37.926598 164.040344,40.509712 164.040344,43.277824 
	C172.945145,43.277824 181.619263,43.277824 190.948486,43.277824 
	C190.565277,40.221508 190.245132,37.668251 189.067154,34.818291 
z"/>
<path fill="#064EAE" opacity="1.000000" stroke="none" 
	d="
M235.184937,212.834015 
	C238.512512,217.845993 243.291031,218.048141 248.541748,217.317444 
	C248.541748,220.610474 248.541748,223.305695 248.541748,226.189453 
	C241.435242,227.182037 234.983398,227.342682 230.117844,220.700592 
	C227.592239,217.252823 224.276550,214.301407 220.973679,211.536865 
	C219.042801,209.920685 216.433792,209.114700 213.170486,207.456848 
	C213.170486,214.569824 213.170486,220.160324 213.170486,226.157349 
	C210.053116,226.157349 207.348221,226.157349 204.306091,226.157349 
	C204.306091,211.587097 204.306091,197.033905 204.306091,181.731094 
	C210.274536,181.731094 216.341187,181.727005 222.407822,181.732269 
	C228.062897,181.737183 233.721664,181.628494 239.372040,181.796661 
	C245.228653,181.970978 248.504593,185.320145 248.867889,191.159454 
	C248.940079,192.319504 248.888412,193.487427 248.889542,194.651718 
	C248.900635,206.164124 246.686447,208.458359 235.375183,208.687546 
	C234.415009,208.707001 233.456787,208.823715 231.806320,208.946838 
	C233.091599,210.442871 234.004105,211.505020 235.184937,212.834015 
M227.488922,199.719254 
	C231.543945,199.719254 235.598969,199.719254 239.549896,199.719254 
	C239.549896,196.255554 239.549896,193.684067 239.549896,191.166840 
	C230.512222,191.166840 221.836975,191.166840 213.310120,191.166840 
	C213.310120,194.175812 213.310120,196.745743 213.310120,199.719055 
	C217.927597,199.719055 222.213165,199.719055 227.488922,199.719254 
z"/>
<path fill="#0A50AF" opacity="1.000000" stroke="none" 
	d="
M303.103729,187.473053 
	C305.144318,183.233536 308.328735,181.672928 312.553894,181.708557 
	C320.700958,181.777252 328.849976,181.649582 336.996399,181.749466 
	C343.908173,181.834183 347.164917,184.981064 347.230408,191.773102 
	C347.340668,203.205063 347.260620,214.638870 347.260620,226.325150 
	C344.155273,226.325150 341.565460,226.325150 338.428040,226.325150 
	C338.428040,220.634293 338.428040,215.078186 338.428040,209.111557 
	C329.370087,209.111557 320.845978,209.111557 311.714905,209.111557 
	C311.714905,214.668976 311.714905,220.221878 311.714905,226.175278 
	C308.430389,226.175278 305.738098,226.175278 302.981720,226.175278 
	C302.981720,213.313660 302.981720,200.583755 303.103729,187.473053 
M325.499451,199.712082 
	C329.599182,199.712082 333.698914,199.712082 337.966888,199.712082 
	C337.966888,196.481216 337.966888,193.902069 337.966888,191.170135 
	C329.047119,191.170135 320.399536,191.170135 311.810150,191.170135 
	C310.796539,199.710907 310.796539,199.710983 318.537109,199.712097 
	C320.528259,199.712387 322.519409,199.711960 325.499451,199.712082 
z"/>
<path fill="#074EAE" opacity="1.000000" stroke="none" 
	d="
M203.984909,45.013008 
	C203.991364,41.187828 203.861023,37.852493 204.036209,34.533291 
	C204.302490,29.487541 207.519730,25.997986 212.542770,25.872421 
	C221.688690,25.643795 230.847580,25.647717 239.994415,25.852066 
	C245.263123,25.969778 248.411499,29.417747 248.855835,34.789341 
	C248.937912,35.781578 248.890244,36.785137 248.890396,37.783470 
	C248.892181,48.424755 248.891510,59.066040 248.891510,70.138443 
	C245.942215,70.138443 243.240479,70.138443 239.989914,70.138443 
	C239.989914,64.562584 239.989914,58.992470 239.989914,53.060375 
	C230.905640,53.060375 222.336945,53.060375 213.134827,53.060375 
	C213.134827,58.615322 213.134827,64.327698 213.134827,70.295212 
	C209.912888,70.295212 207.316574,70.295212 203.984909,70.295212 
	C203.984909,61.986809 203.984909,53.748447 203.984909,45.013008 
M214.933105,43.685551 
	C223.164963,43.685551 231.396820,43.685551 239.574478,43.685551 
	C239.574478,40.327511 239.574478,37.750103 239.574478,35.149895 
	C230.560287,35.149895 221.881836,35.149895 212.468567,35.149895 
	C213.048599,38.280346 213.537643,40.919762 214.933105,43.685551 
z"/>
<path fill="#0950AF" opacity="1.000000" stroke="none" 
	d="
M166.471344,181.723251 
	C174.407242,181.725922 181.895035,181.643417 189.379807,181.757980 
	C196.211227,181.862564 199.454865,185.036331 199.587814,191.912018 
	C199.745392,200.060898 199.748703,208.217606 199.587082,216.366318 
	C199.453293,223.110611 196.098846,226.414810 189.303711,226.537003 
	C181.154449,226.683578 172.997940,226.694687 164.849350,226.529068 
	C158.012772,226.390076 154.881134,223.112564 154.795822,216.249344 
	C154.700714,208.597641 154.742935,200.943802 154.775040,193.291092 
	C154.811020,184.718292 157.446274,182.034729 166.471344,181.723251 
M170.640747,217.594040 
	C177.217316,217.594040 183.793884,217.594040 190.359619,217.594040 
	C190.359619,208.206177 190.359619,199.763214 190.359619,191.044022 
	C181.508209,191.044022 172.941254,191.044022 164.090057,191.044022 
	C164.090057,199.869553 164.090057,208.440948 164.090057,217.593674 
	C166.102020,217.593674 167.893936,217.593674 170.640747,217.594040 
z"/>
<path fill="#084FAF" opacity="1.000000" stroke="none" 
	d="
M326.733215,49.912823 
	C328.537048,51.703117 330.179474,53.139450 331.571869,54.787037 
	C335.480560,59.411983 339.706848,63.225960 346.855804,61.176559 
	C346.855804,64.427132 346.855804,67.139313 346.855804,70.231339 
	C340.238281,70.989380 333.921265,71.609634 329.059448,65.131195 
	C326.288757,61.439213 322.726776,58.270924 319.192413,55.251648 
	C317.417084,53.735069 314.907196,53.078312 311.638062,51.508667 
	C311.638062,58.682835 311.638062,64.257454 311.638062,70.198822 
	C308.362274,70.198822 305.665283,70.198822 302.688904,70.198822 
	C302.688904,55.395996 302.688904,40.836502 302.688904,26.000671 
	C305.527130,26.000671 308.128448,26.000671 311.331818,26.000671 
	C311.331818,31.561962 311.331818,37.122238 311.331818,44.434357 
	C314.574005,43.148762 317.112427,42.750603 318.811401,41.340786 
	C322.255981,38.482479 325.243958,35.074295 328.424042,31.896702 
	C335.202850,25.123199 335.203857,25.124216 346.902649,25.996368 
	C346.902649,28.681217 346.902649,31.403744 346.902649,34.821018 
	C336.729584,32.213718 332.933777,40.856758 327.138031,46.061356 
	C326.416962,46.708889 326.660889,48.431061 326.733215,49.912823 
z"/>
<path fill="#0950AF" opacity="1.000000" stroke="none" 
	d="
M141.281799,208.624634 
	C132.223862,208.661819 123.598831,208.661819 114.416534,208.661819 
	C114.416534,214.813248 114.416534,220.389404 114.416534,226.265350 
	C111.272644,226.265350 108.684937,226.265350 105.667160,226.265350 
	C105.667160,211.688614 105.667160,197.132812 105.667160,181.719147 
	C108.403748,181.719147 111.311684,181.718033 114.219627,181.719360 
	C122.884125,181.723297 131.549988,181.635223 140.212677,181.763046 
	C146.802795,181.860275 149.948502,185.117416 150.109482,191.644989 
	C150.162872,193.809830 150.149506,195.977509 150.115753,198.143082 
	C150.015579,204.568283 148.144608,206.880295 141.281799,208.624634 
M114.306961,198.003479 
	C114.852409,198.539566 115.392303,199.536057 115.944130,199.542679 
	C124.219307,199.642456 132.496063,199.611755 140.843735,199.611755 
	C140.843735,196.440842 140.843735,193.846512 140.843735,191.209854 
	C131.872131,191.209854 123.188683,191.209854 114.248543,191.209854 
	C114.248543,193.485214 114.248543,195.302200 114.306961,198.003479 
z"/>
<path fill="#034CAE" opacity="1.000000" stroke="none" 
	d="
M253.171402,30.613192 
	C255.430069,24.980822 258.072144,24.303600 262.023956,28.181189 
	C269.634094,35.648453 277.118591,43.243683 284.670593,50.770401 
	C285.795227,51.891293 287.003571,52.928246 288.873444,54.648102 
	C288.873444,44.683666 288.873444,35.625671 288.873444,26.178028 
	C292.012878,26.178028 294.717926,26.178028 297.964142,26.178028 
	C297.964142,39.601929 298.041870,53.045086 297.834351,66.483833 
	C297.815277,67.719063 296.084656,69.800255 294.955719,69.941147 
	C293.269806,70.151520 290.925720,69.493057 289.706726,68.323456 
	C281.894562,60.827766 274.317841,53.086842 266.651215,45.439083 
	C265.501709,44.292423 264.286560,43.211586 262.337524,41.383476 
	C262.337524,51.504112 262.337524,60.706978 262.337524,70.226814 
	C259.057190,70.226814 256.329803,70.226814 253.150818,70.226814 
	C253.150818,56.962971 253.150818,44.006927 253.171402,30.613192 
z"/>
<path fill="#0A50AF" opacity="1.000000" stroke="none" 
	d="
M353.283600,222.529144 
	C352.646790,220.621994 351.869812,219.040085 351.855560,217.451340 
	C351.750916,205.811325 351.799164,194.169952 351.799164,182.123123 
	C354.797638,182.123123 357.649017,182.123123 360.864075,182.123123 
	C360.864075,193.786606 360.864075,205.228302 360.864075,217.261154 
	C372.745178,217.261154 384.291138,217.261154 396.232605,217.261154 
	C396.232605,220.546127 396.232605,223.243057 396.232605,226.321655 
	C383.856598,226.321655 371.598083,226.475357 359.351257,226.166245 
	C357.373047,226.116318 355.446838,224.008026 353.283600,222.529144 
z"/>
<path fill="#074EAE" opacity="1.000000" stroke="none" 
	d="
M253.778046,190.272675 
	C253.315628,187.516373 253.194336,185.043259 253.052277,182.146820 
	C268.094391,182.146820 282.803467,182.146820 297.756836,182.146820 
	C297.756836,184.817322 297.756836,187.546463 297.756836,190.740601 
	C291.894318,190.740601 286.293732,190.740601 280.199280,190.740601 
	C280.199280,202.777573 280.199280,214.364487 280.199280,226.251373 
	C276.964233,226.251373 274.233612,226.251373 271.155365,226.251373 
	C271.155365,214.490845 271.155365,203.042191 271.155365,190.555847 
	C265.260406,190.555847 259.689789,190.555847 253.778046,190.272675 
z"/>
<path fill="#D5D7D8" opacity="1.000000" stroke="none" 
	d="
M208.000427,98.182838 
	C240.112274,98.182877 271.724274,98.182877 303.754974,98.182877 
	C303.754974,116.843239 303.754974,135.174973 303.754974,153.747925 
	C265.391022,153.747925 227.146118,153.747925 188.507538,153.747925 
	C188.507538,135.429138 188.507538,117.084824 188.507538,98.182800 
	C194.940094,98.182800 201.220337,98.182800 208.000427,98.182838 
M267.955444,120.742004 
	C263.687500,108.354156 253.076843,101.792793 241.490067,104.376434 
	C229.383911,107.075905 221.738327,118.728928 224.235657,130.674759 
	C226.721695,142.566574 238.240448,150.155640 250.534027,148.001266 
	C262.554291,145.894821 270.136047,134.461517 267.955444,120.742004 
M198.879898,143.425888 
	C198.718384,141.284698 198.703583,139.116516 198.317200,137.016693 
	C198.178482,136.262833 197.169159,135.182541 196.511642,135.149216 
	C195.869598,135.116669 194.832718,136.102936 194.547119,136.859970 
	C191.797424,144.148636 194.770187,148.508286 202.333984,148.438934 
	C202.831436,148.434372 203.392212,148.583649 203.814743,148.404602 
	C205.191818,147.821030 206.518417,147.118347 207.864441,146.461487 
	C206.592514,145.712036 205.399872,144.694809 204.026459,144.288055 
	C202.639648,143.877335 201.073563,144.071899 198.879898,143.425888 
M206.674759,104.256142 
	C203.706314,104.165962 200.721207,103.862427 197.777802,104.092583 
	C196.630783,104.182274 194.754333,105.359825 194.632568,106.238899 
	C194.228378,109.156662 194.357330,112.171364 194.548233,115.131699 
	C194.594086,115.842705 195.669540,116.487312 196.271484,117.162460 
	C196.984848,116.439392 198.172287,115.801140 198.319748,114.976837 
	C198.710556,112.792351 198.651779,110.527428 198.787827,107.997795 
	C201.261169,107.997795 203.313583,108.332130 205.156631,107.856010 
	C206.071045,107.619774 206.600662,105.894035 206.674759,104.256142 
M291.502502,144.250183 
	C289.843201,144.319366 288.138397,144.188141 286.545532,144.549850 
	C285.843597,144.709244 285.130157,145.802338 284.901093,146.607788 
	C284.799835,146.963776 285.794678,147.919754 286.453461,148.159470 
	C293.791443,150.829529 298.070709,147.907898 298.013947,140.344879 
	C298.011444,140.011856 298.123444,139.626373 297.994324,139.354538 
	C297.311584,137.917252 296.568604,136.508575 295.846527,135.089981 
	C295.226807,136.439758 294.525421,137.759125 294.008545,139.147217 
	C293.391785,140.803543 292.933136,142.518753 291.502502,144.250183 
M297.999542,110.536766 
	C297.400940,108.270454 299.645996,104.691025 295.424530,104.112915 
	C292.648682,103.732780 289.771423,103.917877 286.957428,104.110428 
	C286.221100,104.160812 285.551331,105.183464 284.850983,105.759598 
	C285.556366,106.496078 286.192169,107.764648 286.980347,107.867645 
	C289.201141,108.157875 291.484558,107.969048 294.002991,107.969048 
	C294.002991,110.302002 293.772736,111.989853 294.076447,113.575439 
	C294.315796,114.825005 295.212860,115.948570 295.817780,117.128113 
	C296.544373,115.900787 297.360596,114.714851 297.955322,113.426659 
	C298.208618,112.877899 297.998810,112.115326 297.999542,110.536766 
z"/>
<path fill="#CED2D7" opacity="1.000000" stroke="none" 
	d="
M276.209045,92.114792 
	C284.907684,90.386086 293.201935,88.720840 302.089142,86.936546 
	C302.573029,89.254211 303.022339,91.406395 303.544464,93.907341 
	C292.461884,93.907341 281.852600,93.907341 271.243286,93.907341 
	C271.188110,93.741501 271.132935,93.575668 271.077759,93.409828 
	C272.653381,92.999306 274.228973,92.588783 276.209045,92.114792 
z"/>
<path fill="#D2D4D8" opacity="1.000000" stroke="none" 
	d="
M205.809326,163.686523 
	C203.795303,164.050903 202.176666,164.316559 200.064056,164.663284 
	C199.601608,162.588730 199.153351,160.577835 198.632812,158.242645 
	C208.771088,158.242645 218.449249,158.242645 228.127396,158.242645 
	C228.172684,158.459015 228.217972,158.675400 228.263260,158.891769 
	C220.910416,160.457123 213.557571,162.022461 205.809326,163.686523 
z"/>
<path fill="#BBC5D3" opacity="1.000000" stroke="none" 
	d="
M309.360840,121.176529 
	C310.820953,127.949272 312.148773,134.389954 313.585266,141.357864 
	C311.728882,141.776184 310.247314,142.110046 308.401215,142.526047 
	C308.401215,134.493011 308.401215,126.944244 308.401215,118.798775 
	C308.799561,119.783768 309.014069,120.314117 309.360840,121.176529 
z"/>
<path fill="#CBD0D6" opacity="1.000000" stroke="none" 
	d="
M167.105270,52.649651 
	C175.048141,52.644920 182.500122,52.644920 190.309692,52.644920 
	C190.309692,55.638420 190.309692,58.206638 190.309692,61.207802 
	C181.604263,61.207802 172.927521,61.207802 163.717773,61.207802 
	C165.149307,58.258305 160.766342,54.006908 167.105270,52.649651 
z"/>
<path fill="#CDD1D7" opacity="1.000000" stroke="none" 
	d="
M189.496078,34.966644 
	C190.245132,37.668251 190.565277,40.221508 190.948486,43.277824 
	C181.619263,43.277824 172.945145,43.277824 164.040344,43.277824 
	C164.040344,40.509712 164.040344,37.926598 164.040344,34.818291 
	C172.541061,34.818291 180.804108,34.818291 189.496078,34.966644 
z"/>
<path fill="#CED2D7" opacity="1.000000" stroke="none" 
	d="
M226.993835,199.719147 
	C222.213165,199.719055 217.927597,199.719055 213.310120,199.719055 
	C213.310120,196.745743 213.310120,194.175812 213.310120,191.166840 
	C221.836975,191.166840 230.512222,191.166840 239.549896,191.166840 
	C239.549896,193.684067 239.549896,196.255554 239.549896,199.719254 
	C235.598969,199.719254 231.543945,199.719254 226.993835,199.719147 
z"/>
<path fill="#CDD1D7" opacity="1.000000" stroke="none" 
	d="
M325.005005,199.711975 
	C322.519409,199.711960 320.528259,199.712387 318.537109,199.712097 
	C310.796539,199.710983 310.796539,199.710907 311.810150,191.170135 
	C320.399536,191.170135 329.047119,191.170135 337.966888,191.170135 
	C337.966888,193.902069 337.966888,196.481216 337.966888,199.712082 
	C333.698914,199.712082 329.599182,199.712082 325.005005,199.711975 
z"/>
<path fill="#CED2D7" opacity="1.000000" stroke="none" 
	d="
M214.479904,43.622364 
	C213.537643,40.919762 213.048599,38.280346 212.468567,35.149895 
	C221.881836,35.149895 230.560287,35.149895 239.574478,35.149895 
	C239.574478,37.750103 239.574478,40.327511 239.574478,43.685551 
	C231.396820,43.685551 223.164963,43.685551 214.479904,43.622364 
z"/>
<path fill="#D2D4D8" opacity="1.000000" stroke="none" 
	d="
M170.163300,217.593857 
	C167.893936,217.593674 166.102020,217.593674 164.090057,217.593674 
	C164.090057,208.440948 164.090057,199.869553 164.090057,191.044022 
	C172.941254,191.044022 181.508209,191.044022 190.359619,191.044022 
	C190.359619,199.763214 190.359619,208.206177 190.359619,217.594040 
	C183.793884,217.594040 177.217316,217.594040 170.163300,217.593857 
z"/>
<path fill="#CED2D7" opacity="1.000000" stroke="none" 
	d="
M114.277756,197.561340 
	C114.248543,195.302200 114.248543,193.485214 114.248543,191.209854 
	C123.188683,191.209854 131.872131,191.209854 140.843735,191.209854 
	C140.843735,193.846512 140.843735,196.440842 140.843735,199.611755 
	C132.496063,199.611755 124.219307,199.642456 115.944130,199.542679 
	C115.392303,199.536057 114.852409,198.539566 114.277756,197.561340 
z"/>
<path fill="#0D52AF" opacity="1.000000" stroke="none" 
	d="
M268.017578,121.142197 
	C270.136047,134.461517 262.554291,145.894821 250.534027,148.001266 
	C238.240448,150.155640 226.721695,142.566574 224.235657,130.674759 
	C221.738327,118.728928 229.383911,107.075905 241.490067,104.376434 
	C253.076843,101.792793 263.687500,108.354156 268.017578,121.142197 
M230.754959,116.469032 
	C226.588409,124.379692 227.065628,131.791702 232.129028,137.810013 
	C236.982193,143.578445 244.924500,145.839951 251.982498,143.463089 
	C259.330078,140.988724 264.336975,134.281372 264.580872,126.585938 
	C264.826019,118.851341 259.852936,111.751442 252.279587,109.023743 
	C244.527878,106.231812 237.058105,108.630707 230.754959,116.469032 
z"/>
<path fill="#185AB2" opacity="1.000000" stroke="none" 
	d="
M199.232971,143.713593 
	C201.073563,144.071899 202.639648,143.877335 204.026459,144.288055 
	C205.399872,144.694809 206.592514,145.712036 207.864441,146.461487 
	C206.518417,147.118347 205.191818,147.821030 203.814743,148.404602 
	C203.392212,148.583649 202.831436,148.434372 202.333984,148.438934 
	C194.770187,148.508286 191.797424,144.148636 194.547119,136.859970 
	C194.832718,136.102936 195.869598,135.116669 196.511642,135.149216 
	C197.169159,135.182541 198.178482,136.262833 198.317200,137.016693 
	C198.703583,139.116516 198.718384,141.284698 199.232971,143.713593 
z"/>
<path fill="#0D52AF" opacity="1.000000" stroke="none" 
	d="
M206.989563,104.549149 
	C206.600662,105.894035 206.071045,107.619774 205.156631,107.856010 
	C203.313583,108.332130 201.261169,107.997795 198.787827,107.997795 
	C198.651779,110.527428 198.710556,112.792351 198.319748,114.976837 
	C198.172287,115.801140 196.984848,116.439392 196.271484,117.162460 
	C195.669540,116.487312 194.594086,115.842705 194.548233,115.131699 
	C194.357330,112.171364 194.228378,109.156662 194.632568,106.238899 
	C194.754333,105.359825 196.630783,104.182274 197.777802,104.092583 
	C200.721207,103.862427 203.706314,104.165962 206.989563,104.549149 
z"/>
<path fill="#0A50AF" opacity="1.000000" stroke="none" 
	d="
M291.954224,144.229309 
	C292.933136,142.518753 293.391785,140.803543 294.008545,139.147217 
	C294.525421,137.759125 295.226807,136.439758 295.846527,135.089981 
	C296.568604,136.508575 297.311584,137.917252 297.994324,139.354538 
	C298.123444,139.626373 298.011444,140.011856 298.013947,140.344879 
	C298.070709,147.907898 293.791443,150.829529 286.453461,148.159470 
	C285.794678,147.919754 284.799835,146.963776 284.901093,146.607788 
	C285.130157,145.802338 285.843597,144.709244 286.545532,144.549850 
	C288.138397,144.188141 289.843201,144.319366 291.954224,144.229309 
z"/>
<path fill="#034CAE" opacity="1.000000" stroke="none" 
	d="
M297.999512,110.993347 
	C297.998810,112.115326 298.208618,112.877899 297.955322,113.426659 
	C297.360596,114.714851 296.544373,115.900787 295.817780,117.128105 
	C295.212860,115.948570 294.315796,114.825005 294.076447,113.575439 
	C293.772736,111.989853 294.002991,110.302002 294.002991,107.969048 
	C291.484558,107.969048 289.201141,108.157875 286.980347,107.867645 
	C286.192169,107.764648 285.556366,106.496078 284.850983,105.759598 
	C285.551331,105.183464 286.221100,104.160812 286.957428,104.110428 
	C289.771423,103.917877 292.648682,103.732780 295.424530,104.112915 
	C299.645996,104.691025 297.400940,108.270454 297.999512,110.993347 
z"/>
<path fill="#D3D5D8" opacity="1.000000" stroke="none" 
	d="
M230.940765,116.143021 
	C237.058105,108.630707 244.527878,106.231812 252.279587,109.023743 
	C259.852936,111.751442 264.826019,118.851341 264.580872,126.585938 
	C264.336975,134.281372 259.330078,140.988724 251.982498,143.463089 
	C244.924500,145.839951 236.982193,143.578445 232.129028,137.810013 
	C227.065628,131.791702 226.588409,124.379692 230.940765,116.143021 
M243.957626,127.902328 
	C245.282547,127.961220 246.719864,127.726265 247.895386,128.175812 
	C248.770813,128.510605 249.995178,129.908051 249.838654,130.517410 
	C249.584579,131.506439 248.172577,133.047485 247.522034,132.923615 
	C245.679077,132.572693 243.930084,131.578522 242.234131,130.669662 
	C241.406342,130.226059 240.778870,129.408707 239.603073,128.347443 
	C237.259415,135.869904 245.056549,136.047882 245.735672,140.494812 
	C248.079590,138.387985 249.804764,136.840729 251.526184,135.289307 
	C255.134918,132.036942 254.143478,126.515938 249.555099,124.861855 
	C248.190567,124.369934 246.547302,124.643982 245.190720,124.139557 
	C244.129227,123.744843 243.313278,122.689789 242.388214,121.928131 
	C243.330597,120.969688 244.255066,119.249458 245.219437,119.226814 
	C246.764877,119.190514 248.382828,120.185310 249.882004,120.923332 
	C250.967285,121.457588 251.909805,122.281822 252.915985,122.976746 
	C252.860123,121.467339 253.386902,119.502831 252.633484,118.538284 
	C250.761459,116.141655 248.305557,114.201111 245.986374,111.983932 
	C244.781143,113.369293 243.758438,115.007095 242.324356,116.110001 
	C237.213425,120.040741 237.441757,124.050346 243.957626,127.902328 
z"/>
<path fill="#1155B0" opacity="1.000000" stroke="none" 
	d="
M243.557617,127.822609 
	C237.441757,124.050346 237.213425,120.040741 242.324356,116.110001 
	C243.758438,115.007095 244.781143,113.369293 245.986374,111.983932 
	C248.305557,114.201111 250.761459,116.141655 252.633484,118.538284 
	C253.386902,119.502831 252.860123,121.467339 252.915985,122.976746 
	C251.909805,122.281822 250.967285,121.457588 249.882004,120.923332 
	C248.382828,120.185310 246.764877,119.190514 245.219437,119.226814 
	C244.255066,119.249458 243.330597,120.969688 242.388214,121.928131 
	C243.313278,122.689789 244.129227,123.744843 245.190720,124.139557 
	C246.547302,124.643982 248.190567,124.369934 249.555099,124.861855 
	C254.143478,126.515938 255.134918,132.036942 251.526184,135.289307 
	C249.804764,136.840729 248.079590,138.387985 245.735672,140.494812 
	C245.056549,136.047882 237.259415,135.869904 239.603073,128.347443 
	C240.778870,129.408707 241.406342,130.226059 242.234131,130.669662 
	C243.930084,131.578522 245.679077,132.572693 247.522034,132.923615 
	C248.172577,133.047485 249.584579,131.506439 249.838654,130.517410 
	C249.995178,129.908051 248.770813,128.510605 247.895386,128.175812 
	C246.719864,127.726265 245.282547,127.961220 243.557617,127.822609 
z"/>
</svg>