<svg version="1.1" id="Layer_1" xmlns="http://www.w3.org/2000/svg" xmlns:xlink="http://www.w3.org/1999/xlink" x="0px" y="0px"
	 width="100%" viewBox="0 0 400 200" enable-background="new 0 0 400 200" xml:space="preserve">
<path fill="#FDFEFE" opacity="1.000000" stroke="none" 
	d="
M304.000000,201.000000 
	C202.708679,201.000000 101.917358,201.000000 1.063016,201.000000 
	C1.063016,134.403168 1.063016,67.806267 1.063016,1.104680 
	C134.333298,1.104680 267.666626,1.104680 400.979797,1.104680 
	C400.979797,67.749184 400.979797,134.374603 400.979797,201.000000 
	C368.806366,201.000000 336.653198,201.000000 304.000000,201.000000 
M345.474884,62.970547 
	C353.129181,54.344074 360.783447,45.717602 368.437744,37.091129 
	C368.761993,37.338150 369.086273,37.585175 369.410522,37.832199 
	C364.264771,46.793362 358.061432,55.075348 350.932953,62.570812 
	C343.812225,70.058044 336.137543,77.018448 328.643158,84.270332 
	C376.608887,90.777321 397.982056,43.594521 390.495026,10.116597 
	C374.237793,9.075719 358.798004,11.991864 344.631836,20.374767 
	C332.604706,27.491880 323.622101,37.177956 320.376465,51.231232 
	C317.836823,62.227642 319.515411,72.702423 324.445862,83.553322 
	C331.670868,76.488411 338.324310,69.982399 345.474884,62.970547 
M294.296082,96.735596 
	C278.645355,98.815956 268.544281,109.382584 266.361389,125.957832 
	C264.194611,142.410324 274.937103,158.371246 290.553436,161.901855 
	C309.411377,166.165344 325.809967,157.516983 331.209351,140.460556 
	C339.038116,115.729858 321.156525,93.968864 294.296082,96.735596 
M67.360962,68.497711 
	C67.360962,51.897198 67.360962,35.296688 67.360962,17.174393 
	C64.581894,18.764551 62.587345,19.400751 61.311760,20.727957 
	C57.046383,25.165947 53.052284,29.863827 48.927261,34.437801 
	C45.293919,38.466583 41.624352,42.462704 37.816383,46.642731 
	C29.831553,37.776176 22.334290,29.301344 14.622952,21.025997 
	C13.232924,19.534302 10.962193,18.863289 8.438560,17.441929 
	C8.438560,40.569046 8.438560,62.123619 8.438560,83.697296 
	C12.831078,83.697296 16.907852,83.697296 21.469475,83.697296 
	C21.469475,72.029198 21.469475,60.662010 21.469475,48.127911 
	C27.387228,54.341637 32.486973,59.696438 37.463634,64.922005 
	C43.188911,59.659458 48.610748,54.675827 54.332703,49.416336 
	C54.332703,60.898468 54.332703,72.276260 54.332703,83.710472 
	C58.895226,83.710472 62.973858,83.710472 67.361145,83.710472 
	C67.361145,78.777710 67.361145,74.137299 67.360962,68.497711 
M71.644035,118.163689 
	C69.771675,120.235741 67.899307,122.307793 65.753754,124.682167 
	C57.874172,115.931221 50.388317,107.479004 42.706486,99.208824 
	C41.255634,97.646858 39.025364,96.808861 36.415081,95.173363 
	C36.415081,118.407196 36.415081,140.110504 36.415081,161.632385 
	C40.858479,161.632385 44.933365,161.632385 49.478970,161.632385 
	C49.478970,149.913849 49.478970,138.562027 49.478970,127.149216 
	C55.157177,132.511108 60.545437,137.599213 66.097359,142.841858 
	C71.347412,137.790298 76.642662,132.695267 82.311096,127.241158 
	C82.311096,138.927612 82.311096,150.319458 82.311096,161.682358 
	C86.842804,161.682358 90.920494,161.682358 94.950348,161.682358 
	C94.950348,139.771393 94.950348,118.182487 94.950348,95.155853 
	C92.327888,96.817200 90.246323,97.629051 88.865593,99.099136 
	C83.166916,105.166595 77.680695,111.433594 71.644035,118.163689 
M175.537735,134.960953 
	C183.206848,143.518478 190.818619,152.128799 198.602509,160.580643 
	C199.874390,161.961670 201.905655,162.643341 204.121887,163.968781 
	C204.121887,140.970123 204.121887,119.383835 204.121887,97.769852 
	C199.779541,97.769852 195.729126,97.769852 191.122421,97.769852 
	C191.122421,109.627876 191.122421,121.119492 191.122421,133.598129 
	C180.643082,121.406822 170.947937,110.032776 161.101837,98.790955 
	C159.841400,97.351845 157.795059,96.601067 155.576675,95.190521 
	C155.576675,118.286697 155.576675,140.033646 155.576675,161.670212 
	C159.970352,161.670212 164.046783,161.670212 168.482178,161.670212 
	C168.482178,150.278427 168.482178,139.225479 168.482178,127.070488 
	C171.145050,130.054688 173.099960,132.245468 175.537735,134.960953 
M299.939301,64.567230 
	C296.992493,61.205803 294.045715,57.844379 291.098938,54.482952 
	C291.439453,54.167961 291.779938,53.852974 292.120453,53.537983 
	C302.098419,60.635464 308.521545,71.067299 316.045441,81.423676 
	C319.125214,67.945992 317.325928,56.201130 308.654083,46.144619 
	C297.787018,33.542366 283.442566,29.260437 266.962769,29.386837 
	C264.454681,48.168831 266.743774,65.167221 281.260986,78.276031 
	C290.851990,86.936569 302.269867,87.830490 315.160950,83.905266 
	C309.982178,77.317131 305.185852,71.215523 299.939301,64.567230 
M344.991882,154.440277 
	C344.991882,156.876297 344.991882,159.312317 344.991882,161.707703 
	C349.586426,161.707703 353.648346,161.707703 358.044373,161.707703 
	C358.044373,153.485458 358.044373,145.554153 358.044373,137.674103 
	C363.949371,136.989319 363.947815,136.990143 366.370331,141.561081 
	C369.478058,147.424942 372.505310,153.334305 375.765533,159.112167 
	C376.450134,160.325424 377.931702,161.761490 379.157013,161.872818 
	C383.052826,162.226791 387.001068,162.003860 391.739716,162.003860 
	C386.569550,152.731781 381.779785,144.141861 376.985901,135.544601 
	C386.982727,130.571976 390.897095,123.008118 389.053009,112.660835 
	C387.538910,104.164803 381.354004,98.104797 372.305817,97.558624 
	C363.394073,97.020699 354.424500,97.441246 344.991882,97.441246 
	C344.991882,116.285240 344.991882,134.870895 344.991882,154.440277 
M123.954887,78.468971 
	C123.313980,80.213699 122.673073,81.958427 121.729362,84.527489 
	C128.378601,82.334290 137.405945,88.837151 138.765381,77.025452 
	C145.367737,77.025452 151.515182,76.922760 157.653214,77.117386 
	C158.796860,77.153648 160.719528,78.223442 160.889999,79.090179 
	C161.821136,83.824318 164.828888,84.481407 168.894089,84.055672 
	C171.500153,83.782753 174.158005,84.004494 177.455597,84.004494 
	C168.220963,61.303322 159.182892,39.085323 149.579666,15.478067 
	C140.685501,37.275635 132.433914,57.498402 123.954887,78.468971 
M111.934830,47.772869 
	C110.762199,46.899109 109.636101,45.357208 108.408577,45.271740 
	C104.006866,44.965256 99.570847,45.151585 95.334351,45.151585 
	C95.334351,40.487087 95.334351,36.444641 95.334351,32.032730 
	C101.807121,32.032730 107.889397,32.032730 114.037735,32.032730 
	C114.037735,27.710165 114.037735,23.774197 114.037735,19.631126 
	C103.286552,19.631126 92.742714,19.631126 82.219101,19.631126 
	C82.219101,41.190735 82.219101,62.433208 82.219101,83.737045 
	C93.355957,83.737045 104.256668,83.737045 115.005455,83.737045 
	C115.005455,79.402840 115.005455,75.343658 115.005455,70.815216 
	C108.113564,70.815216 101.550789,70.815216 95.172821,70.815216 
	C95.172821,66.378845 95.172821,62.433002 95.172821,58.044903 
	C100.791534,58.044903 106.197289,58.044903 111.935768,58.044903 
	C111.935768,54.635159 111.935768,51.675018 111.934830,47.772869 
M122.862991,116.555222 
	C122.862991,114.595825 122.862991,112.636421 122.862991,110.124329 
	C129.506104,110.124329 135.725784,110.124329 141.913544,110.124329 
	C141.913544,105.626122 141.913544,101.689247 141.913544,97.520172 
	C131.266769,97.520172 120.849945,97.520172 110.221863,97.520172 
	C110.221863,119.067535 110.221863,140.431473 110.221863,161.793137 
	C121.302231,161.793137 132.073669,161.793137 142.970642,161.793137 
	C142.970642,157.519150 142.970642,153.460602 142.970642,148.915527 
	C136.161652,148.915527 129.585541,148.915527 123.244385,148.915527 
	C123.244385,144.361298 123.244385,140.304108 123.244385,135.939331 
	C128.897766,135.939331 134.174316,135.939331 139.540405,135.939331 
	C139.540405,131.559921 139.540405,127.510574 139.540405,122.973106 
	C133.825470,122.973106 128.422775,122.973106 122.862991,122.973106 
	C122.862991,120.827591 122.862991,119.174942 122.862991,116.555222 
M239.499542,97.387344 
	C231.049423,97.387344 222.599319,97.387344 213.889343,97.387344 
	C213.889343,101.846451 213.889343,105.885765 213.889343,110.435005 
	C219.254074,110.435005 224.317886,110.435005 229.725357,110.435005 
	C229.725357,127.873550 229.725357,144.806305 229.725357,161.719940 
	C234.169785,161.719940 238.248047,161.719940 242.726074,161.719940 
	C242.726074,144.522018 242.726074,127.614792 242.726074,110.204262 
	C248.189377,110.204262 253.265396,110.204262 258.545044,110.204262 
	C258.545044,105.785126 258.545044,101.876289 258.545044,97.387367 
	C252.389374,97.387367 246.444244,97.387367 239.499542,97.387344 
M199.342834,50.500355 
	C199.342834,40.221790 199.342834,29.943224 199.342834,19.702774 
	C194.769180,19.702774 190.738281,19.702774 186.731247,19.702774 
	C186.731247,41.336548 186.731247,62.564617 186.731247,83.705978 
	C197.940781,83.705978 208.845551,83.705978 219.621643,83.705978 
	C219.621643,79.329819 219.621643,75.272980 219.621643,71.033791 
	C215.967697,71.033791 212.652603,71.033791 209.337509,71.033791 
	C206.066910,71.033791 202.796326,71.033791 199.342804,71.033791 
	C199.342804,64.138496 199.342804,57.819374 199.342834,50.500355 
z"/>
<path fill="#03C065" opacity="1.000000" stroke="none" 
	d="
M345.226318,63.223465 
	C338.324310,69.982399 331.670868,76.488411 324.445862,83.553322 
	C319.515411,72.702423 317.836823,62.227642 320.376465,51.231232 
	C323.622101,37.177956 332.604706,27.491880 344.631836,20.374767 
	C358.798004,11.991864 374.237793,9.075719 390.495026,10.116597 
	C397.982056,43.594521 376.608887,90.777321 328.643158,84.270332 
	C336.137543,77.018448 343.812225,70.058044 350.932953,62.570812 
	C358.061432,55.075348 364.264771,46.793362 369.410522,37.832199 
	C369.086273,37.585175 368.761993,37.338150 368.437744,37.091129 
	C360.783447,45.717602 353.129181,54.344074 345.226318,63.223465 
z"/>
<path fill="#050505" opacity="1.000000" stroke="none" 
	d="
M294.721161,96.654587 
	C321.156525,93.968864 339.038116,115.729858 331.209351,140.460556 
	C325.809967,157.516983 309.411377,166.165344 290.553436,161.901855 
	C274.937103,158.371246 264.194611,142.410324 266.361389,125.957832 
	C268.544281,109.382584 278.645355,98.815956 294.721161,96.654587 
M318.929657,131.206131 
	C318.941681,130.542023 318.984741,129.876831 318.961121,129.213989 
	C318.518616,116.791100 310.210114,109.042061 298.082916,109.733047 
	C286.993988,110.364876 279.176727,119.740211 280.184418,131.198898 
	C281.251312,143.330948 290.280548,150.678482 302.366333,149.249435 
	C311.437805,148.176788 316.509460,142.895218 318.929657,131.206131 
z"/>
<path fill="#05C066" opacity="1.000000" stroke="none" 
	d="
M67.361053,68.997299 
	C67.361145,74.137299 67.361145,78.777710 67.361145,83.710472 
	C62.973858,83.710472 58.895226,83.710472 54.332703,83.710472 
	C54.332703,72.276260 54.332703,60.898468 54.332703,49.416336 
	C48.610748,54.675827 43.188911,59.659458 37.463634,64.922005 
	C32.486973,59.696438 27.387228,54.341637 21.469475,48.127911 
	C21.469475,60.662010 21.469475,72.029198 21.469475,83.697296 
	C16.907852,83.697296 12.831078,83.697296 8.438560,83.697296 
	C8.438560,62.123619 8.438560,40.569046 8.438560,17.441929 
	C10.962193,18.863289 13.232924,19.534302 14.622952,21.025997 
	C22.334290,29.301344 29.831553,37.776176 37.816383,46.642731 
	C41.624352,42.462704 45.293919,38.466583 48.927261,34.437801 
	C53.052284,29.863827 57.046383,25.165947 61.311760,20.727957 
	C62.587345,19.400751 64.581894,18.764551 67.360962,17.174393 
	C67.360962,35.296688 67.360962,51.897198 67.361053,68.997299 
z"/>
<path fill="#04C065" opacity="1.000000" stroke="none" 
	d="
M71.880219,117.895477 
	C77.680695,111.433594 83.166916,105.166595 88.865593,99.099136 
	C90.246323,97.629051 92.327888,96.817200 94.950348,95.155853 
	C94.950348,118.182487 94.950348,139.771393 94.950348,161.682358 
	C90.920494,161.682358 86.842804,161.682358 82.311096,161.682358 
	C82.311096,150.319458 82.311096,138.927612 82.311096,127.241158 
	C76.642662,132.695267 71.347412,137.790298 66.097359,142.841858 
	C60.545437,137.599213 55.157177,132.511108 49.478970,127.149216 
	C49.478970,138.562027 49.478970,149.913849 49.478970,161.632385 
	C44.933365,161.632385 40.858479,161.632385 36.415081,161.632385 
	C36.415081,140.110504 36.415081,118.407196 36.415081,95.173363 
	C39.025364,96.808861 41.255634,97.646858 42.706486,99.208824 
	C50.388317,107.479004 57.874172,115.931221 65.753754,124.682167 
	C67.899307,122.307793 69.771675,120.235741 71.880219,117.895477 
z"/>
<path fill="#070707" opacity="1.000000" stroke="none" 
	d="
M175.296295,134.698608 
	C173.099960,132.245468 171.145050,130.054688 168.482178,127.070488 
	C168.482178,139.225479 168.482178,150.278427 168.482178,161.670212 
	C164.046783,161.670212 159.970352,161.670212 155.576675,161.670212 
	C155.576675,140.033646 155.576675,118.286697 155.576675,95.190521 
	C157.795059,96.601067 159.841400,97.351845 161.101837,98.790955 
	C170.947937,110.032776 180.643082,121.406822 191.122421,133.598129 
	C191.122421,121.119492 191.122421,109.627876 191.122421,97.769852 
	C195.729126,97.769852 199.779541,97.769852 204.121887,97.769852 
	C204.121887,119.383835 204.121887,140.970123 204.121887,163.968781 
	C201.905655,162.643341 199.874390,161.961670 198.602509,160.580643 
	C190.818619,152.128799 183.206848,143.518478 175.296295,134.698608 
z"/>
<path fill="#04C066" opacity="1.000000" stroke="none" 
	d="
M300.164429,64.840576 
	C305.185852,71.215523 309.982178,77.317131 315.160950,83.905266 
	C302.269867,87.830490 290.851990,86.936569 281.260986,78.276031 
	C266.743774,65.167221 264.454681,48.168831 266.962769,29.386837 
	C283.442566,29.260437 297.787018,33.542366 308.654083,46.144619 
	C317.325928,56.201130 319.125214,67.945992 316.045441,81.423676 
	C308.521545,71.067299 302.098419,60.635464 292.120453,53.537983 
	C291.779938,53.852974 291.439453,54.167961 291.098938,54.482952 
	C294.045715,57.844379 296.992493,61.205803 300.164429,64.840576 
z"/>
<path fill="#040404" opacity="1.000000" stroke="none" 
	d="
M344.991882,153.948410 
	C344.991882,134.870895 344.991882,116.285240 344.991882,97.441246 
	C354.424500,97.441246 363.394073,97.020699 372.305817,97.558624 
	C381.354004,98.104797 387.538910,104.164803 389.053009,112.660835 
	C390.897095,123.008118 386.982727,130.571976 376.985901,135.544601 
	C381.779785,144.141861 386.569550,152.731781 391.739716,162.003860 
	C387.001068,162.003860 383.052826,162.226791 379.157013,161.872818 
	C377.931702,161.761490 376.450134,160.325424 375.765533,159.112167 
	C372.505310,153.334305 369.478058,147.424942 366.370331,141.561081 
	C363.947815,136.990143 363.949371,136.989319 358.044373,137.674103 
	C358.044373,145.554153 358.044373,153.485458 358.044373,161.707703 
	C353.648346,161.707703 349.586426,161.707703 344.991882,161.707703 
	C344.991882,159.312317 344.991882,156.876297 344.991882,153.948410 
M357.928802,117.505524 
	C357.928802,119.901466 357.928802,122.297409 357.928802,124.838043 
	C362.143768,124.838043 365.610687,124.966339 369.064209,124.805740 
	C373.433929,124.602531 375.606659,121.944901 375.881714,117.772865 
	C376.160187,113.549530 373.446503,110.513519 369.065826,110.250351 
	C365.487305,110.035362 361.885590,110.206596 357.928802,110.206596 
	C357.928802,112.641266 357.928802,114.595970 357.928802,117.505524 
z"/>
<path fill="#040404" opacity="1.000000" stroke="none" 
	d="
M124.068604,78.095078 
	C132.433914,57.498402 140.685501,37.275635 149.579666,15.478067 
	C159.182892,39.085323 168.220963,61.303322 177.455597,84.004494 
	C174.158005,84.004494 171.500153,83.782753 168.894089,84.055672 
	C164.828888,84.481407 161.821136,83.824318 160.889999,79.090179 
	C160.719528,78.223442 158.796860,77.153648 157.653214,77.117386 
	C151.515182,76.922760 145.367737,77.025452 138.765381,77.025452 
	C137.405945,88.837151 128.378601,82.334290 121.729362,84.527489 
	C122.673073,81.958427 123.313980,80.213699 124.068604,78.095078 
M151.326416,64.980331 
	C152.544693,64.897736 153.762985,64.815140 155.438354,64.701553 
	C153.465744,59.137177 151.672409,54.078510 149.577744,48.169853 
	C147.416458,54.213856 145.594421,59.309151 143.566467,64.980286 
	C146.225647,64.980286 148.321243,64.980286 151.326416,64.980331 
z"/>
<path fill="#040404" opacity="1.000000" stroke="none" 
	d="
M111.935303,48.243874 
	C111.935768,51.675018 111.935768,54.635159 111.935768,58.044903 
	C106.197289,58.044903 100.791534,58.044903 95.172821,58.044903 
	C95.172821,62.433002 95.172821,66.378845 95.172821,70.815216 
	C101.550789,70.815216 108.113564,70.815216 115.005455,70.815216 
	C115.005455,75.343658 115.005455,79.402840 115.005455,83.737045 
	C104.256668,83.737045 93.355957,83.737045 82.219101,83.737045 
	C82.219101,62.433208 82.219101,41.190735 82.219101,19.631126 
	C92.742714,19.631126 103.286552,19.631126 114.037735,19.631126 
	C114.037735,23.774197 114.037735,27.710165 114.037735,32.032730 
	C107.889397,32.032730 101.807121,32.032730 95.334351,32.032730 
	C95.334351,36.444641 95.334351,40.487087 95.334351,45.151585 
	C99.570847,45.151585 104.006866,44.965256 108.408577,45.271740 
	C109.636101,45.357208 110.762199,46.899109 111.935303,48.243874 
z"/>
<path fill="#040404" opacity="1.000000" stroke="none" 
	d="
M122.862991,117.038757 
	C122.862991,119.174942 122.862991,120.827591 122.862991,122.973106 
	C128.422775,122.973106 133.825470,122.973106 139.540405,122.973106 
	C139.540405,127.510574 139.540405,131.559921 139.540405,135.939331 
	C134.174316,135.939331 128.897766,135.939331 123.244385,135.939331 
	C123.244385,140.304108 123.244385,144.361298 123.244385,148.915527 
	C129.585541,148.915527 136.161652,148.915527 142.970642,148.915527 
	C142.970642,153.460602 142.970642,157.519150 142.970642,161.793137 
	C132.073669,161.793137 121.302231,161.793137 110.221863,161.793137 
	C110.221863,140.431473 110.221863,119.067535 110.221863,97.520172 
	C120.849945,97.520172 131.266769,97.520172 141.913544,97.520172 
	C141.913544,101.689247 141.913544,105.626122 141.913544,110.124329 
	C135.725784,110.124329 129.506104,110.124329 122.862991,110.124329 
	C122.862991,112.636421 122.862991,114.595825 122.862991,117.038757 
z"/>
<path fill="#090909" opacity="1.000000" stroke="none" 
	d="
M239.999329,97.387360 
	C246.444244,97.387367 252.389374,97.387367 258.545044,97.387367 
	C258.545044,101.876289 258.545044,105.785126 258.545044,110.204262 
	C253.265396,110.204262 248.189377,110.204262 242.726074,110.204262 
	C242.726074,127.614792 242.726074,144.522018 242.726074,161.719940 
	C238.248047,161.719940 234.169785,161.719940 229.725357,161.719940 
	C229.725357,144.806305 229.725357,127.873550 229.725357,110.435005 
	C224.317886,110.435005 219.254074,110.435005 213.889343,110.435005 
	C213.889343,105.885765 213.889343,101.846451 213.889343,97.387344 
	C222.599319,97.387344 231.049423,97.387344 239.999329,97.387360 
z"/>
<path fill="#090909" opacity="1.000000" stroke="none" 
	d="
M199.342819,51.000305 
	C199.342804,57.819374 199.342804,64.138496 199.342804,71.033791 
	C202.796326,71.033791 206.066910,71.033791 209.337509,71.033791 
	C212.652603,71.033791 215.967697,71.033791 219.621643,71.033791 
	C219.621643,75.272980 219.621643,79.329819 219.621643,83.705978 
	C208.845551,83.705978 197.940781,83.705978 186.731247,83.705978 
	C186.731247,62.564617 186.731247,41.336548 186.731247,19.702774 
	C190.738281,19.702774 194.769180,19.702774 199.342834,19.702774 
	C199.342834,29.943224 199.342834,40.221790 199.342819,51.000305 
z"/>
<path fill="#FCFCFC" opacity="1.000000" stroke="none" 
	d="
M318.901550,131.632599 
	C316.509460,142.895218 311.437805,148.176788 302.366333,149.249435 
	C290.280548,150.678482 281.251312,143.330948 280.184418,131.198898 
	C279.176727,119.740211 286.993988,110.364876 298.082916,109.733047 
	C310.210114,109.042061 318.518616,116.791100 318.961121,129.213989 
	C318.984741,129.876831 318.941681,130.542023 318.901550,131.632599 
z"/>
<path fill="#F6F6F6" opacity="1.000000" stroke="none" 
	d="
M357.928802,117.028091 
	C357.928802,114.595970 357.928802,112.641266 357.928802,110.206596 
	C361.885590,110.206596 365.487305,110.035362 369.065826,110.250351 
	C373.446503,110.513519 376.160187,113.549530 375.881714,117.772865 
	C375.606659,121.944901 373.433929,124.602531 369.064209,124.805740 
	C365.610687,124.966339 362.143768,124.838043 357.928802,124.838043 
	C357.928802,122.297409 357.928802,119.901466 357.928802,117.028091 
z"/>
<path fill="#F3F3F3" opacity="1.000000" stroke="none" 
	d="
M150.871628,64.980309 
	C148.321243,64.980286 146.225647,64.980286 143.566467,64.980286 
	C145.594421,59.309151 147.416458,54.213856 149.577744,48.169853 
	C151.672409,54.078510 153.465744,59.137177 155.438354,64.701553 
	C153.762985,64.815140 152.544693,64.897736 150.871628,64.980309 
z"/>
</svg>