<svg version="1.1" id="Layer_1" xmlns="http://www.w3.org/2000/svg" xmlns:xlink="http://www.w3.org/1999/xlink" x="0px" y="0px"
	 width="100%" viewBox="0 0 500 250" enable-background="new 0 0 500 250" xml:space="preserve">
<path fill="#010100" opacity="1.000000" stroke="none" 
	d="
M336.000000,251.000000 
	C224.037170,251.000000 112.574326,251.000000 1.055746,251.000000 
	C1.055746,167.731644 1.055746,84.463226 1.055746,1.097410 
	C167.546127,1.097410 334.092316,1.097410 500.819275,1.097410 
	C500.819275,84.333015 500.819275,167.666473 500.819275,251.000000 
	C446.129974,251.000000 391.315002,251.000000 336.000000,251.000000 
M305.704681,145.691864 
	C306.840118,149.506332 307.533813,153.525360 309.188812,157.099243 
	C315.712250,171.186142 329.152039,175.527985 342.848633,168.217560 
	C345.133240,166.998154 347.322205,165.599533 349.822418,164.126389 
	C349.822418,165.247849 349.833527,165.890793 349.820679,166.533264 
	C349.707062,172.223801 350.084686,172.560989 355.302002,170.951004 
	C360.706604,169.283218 366.052765,167.419281 371.484741,165.849716 
	C374.109802,165.091187 375.078369,163.754196 375.294525,160.958130 
	C376.218628,149.005112 377.460999,137.076935 378.557465,125.136963 
	C380.065094,108.719467 381.480927,92.293152 383.083801,75.885048 
	C383.483246,71.795952 382.100983,70.784554 378.286987,71.891479 
	C374.135834,73.096260 369.901306,74.021355 365.687134,74.999550 
	C357.181396,76.973915 357.129272,76.950745 356.412567,85.602272 
	C355.875122,92.090332 355.480347,98.590210 354.940338,106.242928 
	C349.014740,100.195305 343.127960,97.817619 335.940826,99.028290 
	C324.153076,101.013931 315.301544,107.047768 309.693329,117.650307 
	C305.165100,126.211044 304.196136,135.349823 305.704681,145.691864 
M106.254356,162.777237 
	C121.054710,149.096695 120.206802,131.965225 104.012260,119.982140 
	C99.066238,116.322327 93.534142,113.391861 88.910835,109.387924 
	C86.918823,107.662758 85.203255,103.679100 85.836777,101.413437 
	C86.455658,99.200150 90.028030,96.877548 92.655235,96.348824 
	C98.791489,95.113922 103.930244,98.128960 108.489281,102.090248 
	C110.142166,103.526413 111.876961,104.868309 114.127853,106.704796 
	C114.127853,99.621346 113.845947,93.556015 114.216988,87.530891 
	C114.514130,82.705826 111.990456,80.545105 108.038925,79.209892 
	C95.668083,75.029785 83.626816,76.015503 72.404915,82.562401 
	C55.455589,92.450699 53.874435,115.164848 69.024506,127.787437 
	C74.139259,132.048904 79.571541,135.949814 84.466011,140.443237 
	C86.041054,141.889236 87.329292,144.894272 86.951401,146.836349 
	C86.634689,148.463974 83.879929,150.299789 81.893562,150.794662 
	C75.387138,152.415619 69.389122,150.769318 64.052429,146.689819 
	C62.706673,145.661087 61.249817,144.777695 58.887390,143.180923 
	C59.256695,150.747101 59.856335,157.024490 59.762630,163.291489 
	C59.703289,167.260498 61.419365,169.024429 64.905922,169.868912 
	C79.441673,173.389633 93.323326,172.955261 106.254356,162.777237 
M299.916229,103.368958 
	C293.988495,101.911942 288.060730,100.454926 281.759125,98.906013 
	C276.834076,112.526413 271.951965,126.028091 267.069885,139.529770 
	C266.782349,139.488281 266.494843,139.446808 266.207306,139.405319 
	C263.736542,125.965393 261.265778,112.525459 258.762054,98.906288 
	C252.256973,100.446152 246.183105,102.022072 240.044098,103.280037 
	C236.877823,103.928848 236.078384,105.099197 236.947220,108.384209 
	C242.132782,127.990562 247.133591,147.646576 252.030243,167.327271 
	C252.501389,169.220917 252.315002,171.584625 251.607239,173.409546 
	C249.161362,179.716263 246.349594,185.881088 243.434052,192.665558 
	C250.326950,194.375000 256.527832,195.912811 262.978149,197.512497 
	C263.691803,196.061920 264.383179,194.767029 264.978516,193.429367 
	C271.060211,179.764175 277.136780,166.096680 283.193848,152.420547 
	C289.587341,137.984940 295.963409,123.541588 302.333344,109.095558 
	C303.340485,106.811546 304.943420,104.290657 299.916229,103.368958 
M439.255280,140.867920 
	C446.417725,136.689468 452.820526,131.678223 452.401276,122.420906 
	C451.933716,112.097412 445.933533,105.225632 436.819611,100.992210 
	C434.598633,99.960556 432.095123,99.256485 429.660706,99.015053 
	C420.759247,98.132240 412.351990,99.910225 404.935669,105.018196 
	C391.357330,114.370300 386.063263,127.738754 388.346863,143.639847 
	C390.398499,157.925674 399.559082,166.641724 413.330719,170.453812 
	C425.118958,173.716904 436.040375,170.319473 446.687164,165.590973 
	C447.700226,165.141052 448.895844,163.741531 448.949829,162.726654 
	C449.193359,158.147964 449.056213,153.549026 449.056213,148.272720 
	C446.098328,149.496933 443.861755,150.478012 441.584869,151.354477 
	C434.988281,153.893845 428.283508,155.812592 421.145081,153.945999 
	C415.691345,152.519943 413.171661,149.603012 413.236725,144.873871 
	C421.978729,145.719177 430.534729,145.153763 439.255280,140.867920 
M224.198486,100.628616 
	C219.502075,102.852692 214.805664,105.076767 209.822266,107.436752 
	C210.170380,104.483826 210.487778,101.791618 210.821609,98.959862 
	C202.914307,100.633720 195.559189,102.021271 188.322357,103.871437 
	C186.942780,104.224136 185.169800,106.321487 185.032166,107.753632 
	C183.119568,127.653954 181.523254,147.584412 179.691254,167.492950 
	C179.282181,171.938232 181.105881,172.392288 184.634659,171.114456 
	C190.267181,169.074783 196.015335,167.318832 201.518768,164.981766 
	C203.006729,164.349884 204.574081,162.150208 204.767731,160.512070 
	C205.960403,150.423080 206.639404,140.274460 207.750778,130.174438 
	C208.557266,122.845139 212.564499,118.751526 219.851761,117.732574 
	C223.580231,117.211235 227.399399,117.338509 231.486954,117.159042 
	C232.704483,110.980629 233.908371,104.871399 235.282166,97.900024 
	C231.269836,98.828514 228.093185,99.563622 224.198486,100.628616 
M140.187881,147.676010 
	C142.643051,145.423889 145.197693,143.269745 147.532623,140.899200 
	C152.359863,135.998337 153.029709,135.903503 159.080750,140.157578 
	C157.511520,142.854309 156.134033,145.689209 154.318680,148.208572 
	C152.533554,150.685928 150.541519,153.131439 148.201599,155.058182 
	C145.942932,156.918030 144.154526,158.479462 145.531021,161.668747 
	C147.019592,165.117676 147.538803,169.437195 153.804581,169.613037 
	C148.912201,158.008194 157.659622,152.967545 163.778076,146.654602 
	C164.356659,146.057602 165.030945,145.554047 165.618866,144.965240 
	C169.759735,140.818146 170.018539,137.753067 166.257950,133.191284 
	C164.799713,131.422379 163.066528,129.550507 161.046432,128.641068 
	C156.430817,126.563141 156.163818,123.313416 157.548965,119.217606 
	C158.182236,117.345139 158.737549,115.446320 159.408920,113.301682 
	C163.724442,116.095139 166.478012,114.273941 168.898163,110.544617 
	C170.876556,107.496056 173.494583,104.857460 175.413635,101.778221 
	C176.113678,100.654976 175.948883,98.684402 175.530563,97.295601 
	C175.303040,96.540207 173.099548,95.544350 172.851639,95.779427 
	C171.917084,96.665565 171.108780,97.940262 170.816742,99.200096 
	C169.979309,102.812408 168.398422,105.656807 164.139877,107.128075 
	C163.366913,105.152863 162.311539,103.409271 162.034378,101.549698 
	C161.453629,97.653191 159.974670,94.751381 156.187805,92.946297 
	C155.168915,92.460632 154.787033,90.174225 154.534897,88.644821 
	C154.064102,85.789116 154.544968,82.608185 153.458282,80.062721 
	C151.917221,76.452934 147.202225,75.300865 144.612488,77.427612 
	C141.526581,79.961815 141.135834,83.124344 143.900375,86.117256 
	C146.179550,88.584702 145.444992,89.929329 142.940506,91.548721 
	C138.641373,94.328491 134.520157,97.384621 130.340561,100.347755 
	C125.902779,103.493942 125.176064,107.752716 126.510666,112.742775 
	C127.272751,115.592262 127.599266,118.558556 128.367813,121.405884 
	C128.798782,123.002510 129.481583,124.694984 130.566742,125.866440 
	C130.971893,126.303802 133.783203,125.554771 133.875305,125.050461 
	C134.192871,123.311546 134.434586,121.024918 133.564743,119.690002 
	C128.075134,111.265137 129.763458,106.025696 139.432037,102.537964 
	C144.768143,107.777237 145.842926,114.517708 142.554321,120.904495 
	C141.746338,122.473656 140.878281,124.397034 141.075333,126.032578 
	C141.980789,133.548462 136.888550,138.569366 133.614258,144.215012 
	C131.461044,147.927628 128.030533,150.899597 125.170914,154.202301 
	C124.198540,155.325333 123.376053,156.647476 122.217674,157.526077 
	C119.576996,159.528992 115.780243,160.340698 117.362312,165.358292 
	C118.385597,168.603668 118.046501,172.278610 118.317902,175.761047 
	C118.815140,175.760925 119.312378,175.760788 119.809608,175.760666 
	C120.440125,173.738312 121.102089,171.725128 121.695801,169.692032 
	C124.555595,159.899078 132.948441,154.724854 140.187881,147.676010 
z"/>
<path fill="#FBD01F" opacity="1.000000" stroke="none" 
	d="
M305.619293,145.258591 
	C304.196136,135.349823 305.165100,126.211044 309.693329,117.650307 
	C315.301544,107.047768 324.153076,101.013931 335.940826,99.028290 
	C343.127960,97.817619 349.014740,100.195305 354.940338,106.242928 
	C355.480347,98.590210 355.875122,92.090332 356.412567,85.602272 
	C357.129272,76.950745 357.181396,76.973915 365.687134,74.999550 
	C369.901306,74.021355 374.135834,73.096260 378.286987,71.891479 
	C382.100983,70.784554 383.483246,71.795952 383.083801,75.885048 
	C381.480927,92.293152 380.065094,108.719467 378.557465,125.136963 
	C377.460999,137.076935 376.218628,149.005112 375.294525,160.958130 
	C375.078369,163.754196 374.109802,165.091187 371.484741,165.849716 
	C366.052765,167.419281 360.706604,169.283218 355.302002,170.951004 
	C350.084686,172.560989 349.707062,172.223801 349.820679,166.533264 
	C349.833527,165.890793 349.822418,165.247849 349.822418,164.126389 
	C347.322205,165.599533 345.133240,166.998154 342.848633,168.217560 
	C329.152039,175.527985 315.712250,171.186142 309.188812,157.099243 
	C307.533813,153.525360 306.840118,149.506332 305.619293,145.258591 
M338.158966,117.241142 
	C329.643463,124.736443 326.714386,142.015442 332.549438,151.620987 
	C333.471619,153.139114 335.351715,154.679764 337.033112,155.026718 
	C344.000610,156.464432 351.503906,150.663956 352.251617,143.620377 
	C352.777069,138.670135 352.696808,133.576080 353.882690,128.793121 
	C355.927002,120.548035 346.695038,112.736862 338.158966,117.241142 
z"/>
<path fill="#FBCF1F" opacity="1.000000" stroke="none" 
	d="
M105.977112,163.005005 
	C93.323326,172.955261 79.441673,173.389633 64.905922,169.868912 
	C61.419365,169.024429 59.703289,167.260498 59.762630,163.291489 
	C59.856335,157.024490 59.256695,150.747101 58.887390,143.180923 
	C61.249817,144.777695 62.706673,145.661087 64.052429,146.689819 
	C69.389122,150.769318 75.387138,152.415619 81.893562,150.794662 
	C83.879929,150.299789 86.634689,148.463974 86.951401,146.836349 
	C87.329292,144.894272 86.041054,141.889236 84.466011,140.443237 
	C79.571541,135.949814 74.139259,132.048904 69.024506,127.787437 
	C53.874435,115.164848 55.455589,92.450699 72.404915,82.562401 
	C83.626816,76.015503 95.668083,75.029785 108.038925,79.209892 
	C111.990456,80.545105 114.514130,82.705826 114.216988,87.530891 
	C113.845947,93.556015 114.127853,99.621346 114.127853,106.704796 
	C111.876961,104.868309 110.142166,103.526413 108.489281,102.090248 
	C103.930244,98.128960 98.791489,95.113922 92.655235,96.348824 
	C90.028030,96.877548 86.455658,99.200150 85.836777,101.413437 
	C85.203255,103.679100 86.918823,107.662758 88.910835,109.387924 
	C93.534142,113.391861 99.066238,116.322327 104.012260,119.982140 
	C120.206802,131.965225 121.054710,149.096695 105.977112,163.005005 
z"/>
<path fill="#FBCF1F" opacity="1.000000" stroke="none" 
	d="
M300.284607,103.485870 
	C304.943420,104.290657 303.340485,106.811546 302.333344,109.095558 
	C295.963409,123.541588 289.587341,137.984940 283.193848,152.420547 
	C277.136780,166.096680 271.060211,179.764175 264.978516,193.429367 
	C264.383179,194.767029 263.691803,196.061920 262.978149,197.512497 
	C256.527832,195.912811 250.326950,194.375000 243.434052,192.665558 
	C246.349594,185.881088 249.161362,179.716263 251.607239,173.409546 
	C252.315002,171.584625 252.501389,169.220917 252.030243,167.327271 
	C247.133591,147.646576 242.132782,127.990562 236.947220,108.384209 
	C236.078384,105.099197 236.877823,103.928848 240.044098,103.280037 
	C246.183105,102.022072 252.256973,100.446152 258.762054,98.906288 
	C261.265778,112.525459 263.736542,125.965393 266.207306,139.405319 
	C266.494843,139.446808 266.782349,139.488281 267.069885,139.529770 
	C271.951965,126.028091 276.834076,112.526413 281.759125,98.906013 
	C288.060730,100.454926 293.988495,101.911942 300.284607,103.485870 
z"/>
<path fill="#FBD01F" opacity="1.000000" stroke="none" 
	d="
M438.908691,141.012878 
	C430.534729,145.153763 421.978729,145.719177 413.236725,144.873871 
	C413.171661,149.603012 415.691345,152.519943 421.145081,153.945999 
	C428.283508,155.812592 434.988281,153.893845 441.584869,151.354477 
	C443.861755,150.478012 446.098328,149.496933 449.056213,148.272720 
	C449.056213,153.549026 449.193359,158.147964 448.949829,162.726654 
	C448.895844,163.741531 447.700226,165.141052 446.687164,165.590973 
	C436.040375,170.319473 425.118958,173.716904 413.330719,170.453812 
	C399.559082,166.641724 390.398499,157.925674 388.346863,143.639847 
	C386.063263,127.738754 391.357330,114.370300 404.935669,105.018196 
	C412.351990,99.910225 420.759247,98.132240 429.660706,99.015053 
	C432.095123,99.256485 434.598633,99.960556 436.819611,100.992210 
	C445.933533,105.225632 451.933716,112.097412 452.401276,122.420906 
	C452.820526,131.678223 446.417725,136.689468 438.908691,141.012878 
M422.502502,115.867989 
	C415.888580,118.353073 413.675934,123.870689 411.452881,131.236786 
	C417.695709,129.429138 422.770050,128.455505 427.380463,126.427208 
	C429.892059,125.322258 431.616455,122.427895 433.695892,120.340584 
	C430.865631,118.692261 428.061554,116.995316 425.178711,115.444733 
	C424.712708,115.194092 423.896759,115.594116 422.502502,115.867989 
z"/>
<path fill="#FBCF1F" opacity="1.000000" stroke="none" 
	d="
M224.557510,100.463669 
	C228.093185,99.563622 231.269836,98.828514 235.282166,97.900024 
	C233.908371,104.871399 232.704483,110.980629 231.486954,117.159042 
	C227.399399,117.338509 223.580231,117.211235 219.851761,117.732574 
	C212.564499,118.751526 208.557266,122.845139 207.750778,130.174438 
	C206.639404,140.274460 205.960403,150.423080 204.767731,160.512070 
	C204.574081,162.150208 203.006729,164.349884 201.518768,164.981766 
	C196.015335,167.318832 190.267181,169.074783 184.634659,171.114456 
	C181.105881,172.392288 179.282181,171.938232 179.691254,167.492950 
	C181.523254,147.584412 183.119568,127.653954 185.032166,107.753632 
	C185.169800,106.321487 186.942780,104.224136 188.322357,103.871437 
	C195.559189,102.021271 202.914307,100.633720 210.821609,98.959862 
	C210.487778,101.791618 210.170380,104.483826 209.822266,107.436752 
	C214.805664,105.076767 219.502075,102.852692 224.557510,100.463669 
z"/>
<path fill="#F6CC1E" opacity="1.000000" stroke="none" 
	d="
M139.920593,147.908554 
	C132.948441,154.724854 124.555595,159.899078 121.695801,169.692032 
	C121.102089,171.725128 120.440125,173.738312 119.809608,175.760666 
	C119.312378,175.760788 118.815140,175.760925 118.317902,175.761047 
	C118.046501,172.278610 118.385597,168.603668 117.362312,165.358292 
	C115.780243,160.340698 119.576996,159.528992 122.217674,157.526077 
	C123.376053,156.647476 124.198540,155.325333 125.170914,154.202301 
	C128.030533,150.899597 131.461044,147.927628 133.614258,144.215012 
	C136.888550,138.569366 141.980789,133.548462 141.075333,126.032578 
	C140.878281,124.397034 141.746338,122.473656 142.554321,120.904495 
	C145.842926,114.517708 144.768143,107.777237 139.432037,102.537964 
	C129.763458,106.025696 128.075134,111.265137 133.564743,119.690002 
	C134.434586,121.024918 134.192871,123.311546 133.875305,125.050461 
	C133.783203,125.554771 130.971893,126.303802 130.566742,125.866440 
	C129.481583,124.694984 128.798782,123.002510 128.367813,121.405884 
	C127.599266,118.558556 127.272751,115.592262 126.510666,112.742775 
	C125.176064,107.752716 125.902779,103.493942 130.340561,100.347755 
	C134.520157,97.384621 138.641373,94.328491 142.940506,91.548721 
	C145.444992,89.929329 146.179550,88.584702 143.900375,86.117256 
	C141.135834,83.124344 141.526581,79.961815 144.612488,77.427612 
	C147.202225,75.300865 151.917221,76.452934 153.458282,80.062721 
	C154.544968,82.608185 154.064102,85.789116 154.534897,88.644821 
	C154.787033,90.174225 155.168915,92.460632 156.187805,92.946297 
	C159.974670,94.751381 161.453629,97.653191 162.034378,101.549698 
	C162.311539,103.409271 163.366913,105.152863 164.139877,107.128075 
	C168.398422,105.656807 169.979309,102.812408 170.816742,99.200096 
	C171.108780,97.940262 171.917084,96.665565 172.851639,95.779427 
	C173.099548,95.544350 175.303040,96.540207 175.530563,97.295601 
	C175.948883,98.684402 176.113678,100.654976 175.413635,101.778221 
	C173.494583,104.857460 170.876556,107.496056 168.898163,110.544617 
	C166.478012,114.273941 163.724442,116.095139 159.408920,113.301682 
	C158.737549,115.446320 158.182236,117.345139 157.548965,119.217606 
	C156.163818,123.313416 156.430817,126.563141 161.046432,128.641068 
	C163.066528,129.550507 164.799713,131.422379 166.257950,133.191284 
	C170.018539,137.753067 169.759735,140.818146 165.618866,144.965240 
	C165.030945,145.554047 164.356659,146.057602 163.778076,146.654602 
	C157.659622,152.967545 148.912201,158.008194 153.804581,169.613037 
	C147.538803,169.437195 147.019592,165.117676 145.531021,161.668747 
	C144.154526,158.479462 145.942932,156.918030 148.201599,155.058182 
	C150.541519,153.131439 152.533554,150.685928 154.318680,148.208572 
	C156.134033,145.689209 157.511520,142.854309 159.081085,140.157761 
	C153.029709,135.903503 152.359863,135.998337 147.532623,140.899200 
	C145.197693,143.269745 142.643051,145.423889 139.920593,147.908554 
z"/>
<path fill="#040300" opacity="1.000000" stroke="none" 
	d="
M338.508972,117.065231 
	C346.695038,112.736862 355.927002,120.548035 353.882690,128.793121 
	C352.696808,133.576080 352.777069,138.670135 352.251617,143.620377 
	C351.503906,150.663956 344.000610,156.464432 337.033112,155.026718 
	C335.351715,154.679764 333.471619,153.139114 332.549438,151.620987 
	C326.714386,142.015442 329.643463,124.736443 338.508972,117.065231 
z"/>
<path fill="#0C0A01" opacity="1.000000" stroke="none" 
	d="
M422.872528,115.780685 
	C423.896759,115.594116 424.712708,115.194092 425.178711,115.444733 
	C428.061554,116.995316 430.865631,118.692261 433.695892,120.340584 
	C431.616455,122.427895 429.892059,125.322258 427.380463,126.427208 
	C422.770050,128.455505 417.695709,129.429138 411.452881,131.236786 
	C413.675934,123.870689 415.888580,118.353073 422.872528,115.780685 
z"/>
</svg>